<?xml version="1.0" standalone="no"?>
<!DOCTYPE svg PUBLIC "-//W3C//DTD SVG 20010904//EN"
 "http://www.w3.org/TR/2001/REC-SVG-20010904/DTD/svg10.dtd">
<svg version="1.0" xmlns="http://www.w3.org/2000/svg"
 width="200.000000pt" height="200.000000pt" viewBox="0 0 200.000000 200.000000"
 preserveAspectRatio="xMidYMid meet">

<g transform="translate(0.000000,200.000000) scale(0.100000,-0.100000)"
fill="#000000" stroke="none">
<path d="M907 1666 c-117 -43 -188 -142 -191 -265 -2 -55 -5 -63 -45 -106 -41
-45 -71 -99 -71 -129 0 -47 90 -60 184 -27 49 17 51 17 105 -6 186 -76 390 57
395 258 2 52 5 60 49 110 76 87 85 159 21 172 -29 5 -143 -16 -171 -32 -12 -7
-29 -3 -58 11 -51 27 -165 34 -218 14z m182 -38 c45 -14 113 -78 135 -127 l18
-39 -40 -36 c-22 -20 -53 -46 -68 -58 l-27 -22 7 27 c11 47 -22 33 -44 -19
-31 -71 -29 -74 45 -74 51 0 65 3 65 15 0 9 -9 15 -25 15 -14 0 -25 3 -25 8 0
4 28 27 62 51 l61 43 -6 -46 c-12 -89 -72 -167 -154 -201 -45 -19 -143 -19
-187 -1 -49 20 -110 79 -131 126 l-18 40 48 42 c27 24 57 49 68 57 19 13 20
13 13 -12 -11 -47 22 -32 44 19 31 71 29 74 -45 74 -51 0 -65 -3 -65 -15 0 -9
9 -15 25 -15 35 0 31 -11 -13 -39 -20 -14 -48 -34 -61 -45 l-24 -21 6 48 c8
58 29 101 71 145 68 73 157 93 265 60z m276 2 c9 -14 -29 -81 -64 -114 -28
-27 -31 -28 -37 -10 -4 10 -20 38 -36 62 l-29 42 23 9 c13 4 30 11 38 14 25 9
98 8 105 -3z m-619 -362 c9 -18 25 -43 36 -55 11 -12 17 -26 14 -31 -7 -12
-85 -32 -125 -32 -36 0 -44 11 -32 44 9 22 77 106 87 106 2 0 11 -15 20 -32z"/>
<path d="M645 908 c-3 -18 -16 -93 -29 -165 l-23 -133 23 0 c19 0 23 6 26 38
3 36 4 37 43 37 38 0 40 -2 45 -35 4 -27 10 -36 28 -38 19 -3 23 0 19 15 -3
10 -18 84 -33 166 l-27 147 -33 0 c-29 0 -34 -4 -39 -32z m68 -155 c6 -32 6
-33 -29 -33 -29 0 -34 3 -30 18 2 9 7 37 11 62 3 25 9 59 12 75 7 31 10 18 36
-122z"/>
<path d="M820 775 c0 -157 1 -165 20 -165 17 0 19 8 22 68 2 51 6 67 18 67 9
0 24 -26 39 -67 21 -57 29 -68 48 -68 l23 0 -25 66 c-22 59 -23 68 -10 78 13
9 15 29 13 96 l-3 85 -72 3 -73 3 0 -166z m108 68 l3 -63 -36 0 -35 0 0 58 c0
67 4 74 40 70 23 -3 25 -7 28 -65z"/>
<path d="M1030 775 l0 -165 70 0 c56 0 70 3 70 15 0 11 -12 15 -45 15 l-45 0
0 60 0 60 35 0 c28 0 35 4 35 20 0 16 -7 20 -35 20 l-35 0 0 55 0 55 45 0 c33
0 45 4 45 15 0 12 -14 15 -70 15 l-70 0 0 -165z"/>
<path d="M1255 928 c-4 -13 -55 -299 -55 -311 0 -4 9 -7 20 -7 15 0 21 9 26
40 6 38 8 40 44 40 37 0 39 -2 45 -40 5 -30 11 -40 26 -40 10 0 19 5 19 12 0
14 -49 276 -56 301 -6 20 -62 24 -69 5z m53 -119 c16 -90 16 -89 -19 -89 -31
0 -32 0 -25 43 4 23 10 61 13 85 8 55 17 44 31 -39z"/>
</g>
</svg>
